<svg xmlns="http://www.w3.org/2000/svg" width="16" height="16" viewBox="0 0 0.167 0.167"><path d="M.01.031v.042h.01V.042h.043v-.01Zm.094 0v.01h.042v.032h.01V.031zm-.033.04a.021.021 0 0 0-.015.006.025.025 0 0 0-.007.017.058.058 0 0 1 .013-.009.022.022 0 0 1 .01-.002c.003 0 .007.002.011.005a.021.021 0 0 0 .014.005.02.02 0 0 0 .01-.002.019.019 0 0 0 .01-.018L.11.078a.023.023 0 0 1-.012.003.029.029 0 0 1-.011-.004.032.032 0 0 0-.016-.005zM.01.095v.042h.052v-.01H.02V.093Zm.135 0v.031H.104v.01h.053V.095z"/></svg>