<svg xmlns="http://www.w3.org/2000/svg" width="16" height="16" viewBox="0 0 0.167 0.167"><path d="M.01.01v.053h.01V.02h.043V.01H.01zm.094 0v.01h.042v.043h.01V.01H.105zM.071.072a.021.021 0 0 0-.015.006.025.025 0 0 0-.007.017.058.058 0 0 1 .014-.009.022.022 0 0 1 .009-.002c.004 0 .008.001.012.005a.021.021 0 0 0 .013.005.02.02 0 0 0 .01-.003.019.019 0 0 0 .01-.017.019.019 0 0 1-.006.005.023.023 0 0 1-.012.003.029.029 0 0 1-.011-.005.032.032 0 0 0-.016-.005zm-.06.032v.053h.052v-.01H.02V.103H.01zm.135 0v.042H.104v.01h.053V.105h-.01z"/></svg>